<svg xmlns="http://www.w3.org/2000/svg" version="1.1" xmlns:xlink="http://www.w3.org/1999/xlink" xmlns:svgjs="http://svgjs.dev/svgjs" width="1500" height="1500" viewBox="0 0 1500 1500"><rect width="1500" height="1500" fill="#000000"></rect><g transform="matrix(0.6666666666666666,0,0,0.6666666666666666,250,250.00064846193948)"><svg viewBox="0 0 280 280" data-background-color="#ebe3d6" preserveAspectRatio="xMidYMid meet" height="1500" width="1500" xmlns="http://www.w3.org/2000/svg" xmlns:xlink="http://www.w3.org/1999/xlink"><g id="tight-bounds" transform="matrix(1,0,0,1,0,-0.00018156934305579853)"><svg viewBox="0 0 280 280" height="280" width="280"><g><svg viewBox="0 0 280 280" height="280" width="280"><g><svg viewBox="0 0 280 280" height="280" width="280"><g id="textblocktransform"><svg viewBox="0 0 280 280" height="280" width="280" id="textblock"><g><svg viewBox="0 0 280 280" height="280" width="280"><g transform="matrix(1,0,0,1,107.39131304167928,74.00336708925556)"><svg viewBox="0 0 65.21737391664144 131.99326582148888" height="131.99326582148888" width="65.21737391664144"><g id="icon-0"><svg xmlns:x="http://ns.adobe.com/Extensibility/1.0/" xmlns:i="http://ns.adobe.com/AdobeIllustrator/10.0/" xmlns:graph="http://ns.adobe.com/Graphs/1.0/" xmlns="http://www.w3.org/2000/svg" xmlns:xlink="http://www.w3.org/1999/xlink" version="1.1" x="0" y="0" viewBox="25.954999999999988 0.05799999999999894 49.378000000000014 99.936" enable-background="new 0 0 100 100" xml:space="preserve" height="131.99326582148888" width="65.21737391664144" class="icon-xg-0" data-fill-palette-color="accent" id="xg-0"><path fill="#ffffff" d="M55.127 18.807v-8.378c0-0.646 0.525-1.172 1.175-1.172h16.054c0.086 0 0.172-0.013 0.25-0.024 0.006 0 0.013 0 0.019 0 1.618 0 2.708-1.845 2.708-4.59 0-2.744-1.09-4.585-2.708-4.585-0.006 0-0.013 0-0.019 0s-0.013 0-0.019 0h-17.14c-5.253 0-9.527 4.274-9.527 9.526v9.239c-9.825 0.739-19.965 4.031-19.965 9.777v8.452c0 1.517 0.701 2.872 1.926 4.053-0.001 0.07-0.004 0.136 0.004 0.204l5.34 47.738C33.3 93.55 39.39 99.994 50.347 99.994c10.952 0 17.042-6.438 17.12-10.941l5.598-47.664c1.418-1.248 2.236-2.696 2.236-4.338V28.6C75.301 22.808 65.031 19.516 55.127 18.807zM71.762 2.874h0.452c0.13 0.3 0.3 0.909 0.3 1.769 0 0.888-0.176 1.506-0.309 1.796h-0.434c-0.137-0.291-0.309-0.909-0.309-1.793C71.463 3.783 71.629 3.174 71.762 2.874zM48.735 9.583c0-3.698 3.011-6.709 6.712-6.709h13.371c-0.109 0.533-0.174 1.127-0.174 1.772 0 0.651 0.063 1.254 0.18 1.793H56.302c-2.198 0-3.993 1.791-3.993 3.99V35.71c-0.551 0.015-1.113 0.027-1.68 0.027-0.64 0-1.27-0.012-1.894-0.034V9.583zM55.127 33.234c2.996 0.176 5.839 0.527 8.344 1.024-2.425 0.616-5.242 1.079-8.344 1.312V33.234zM45.92 21.645v5.62c-0.01 1.666-1.191 3.052-2.764 3.377-0.229 0.021-0.454 0.045-0.682 0.07-0.004 0-0.009 0-0.014 0-3.619 0.388-6.907 1.033-9.542 1.881-2.628-1.215-4.147-2.636-4.147-3.993C28.771 25.816 35.292 22.46 45.92 21.645zM45.92 33.246v2.305c-3.02-0.236-5.766-0.693-8.133-1.293C40.23 33.771 42.995 33.425 45.92 33.246zM64.661 88.799c-0.007 0.055-0.013 0.108-0.013 0.163 0 2.947-4.779 8.216-14.302 8.216-9.526 0-14.305-5.269-14.305-8.216 0-0.052-0.003-0.104-0.009-0.157l-5.101-45.588c4.798 2.486 12.388 3.788 19.697 3.788 7.142 0 14.556-1.245 19.364-3.622L64.661 88.799zM72.484 37.051c0 3.369-9.35 7.136-21.855 7.136-12.509 0-21.858-3.768-21.858-7.136v-3.638c4.411 3.366 13.324 5.141 21.858 5.141 8.532 0 17.443-1.774 21.855-5.141V37.051zM68.309 32.608c-0.078-0.043-0.158-0.076-0.242-0.104-2.653-0.827-5.955-1.451-9.563-1.824l0.056-0.014c-1.76 0-3.213-1.321-3.432-3.023V21.63c10.754 0.785 17.357 4.162 17.357 6.97C72.484 29.963 70.957 31.39 68.309 32.608z" data-fill-palette-color="accent"></path></svg><g></g></g></svg></g><g id="text-0"><path d="M38.142 116.603l-2.22 0.623c-0.391-1.375-0.89-2.523-1.495-3.442-0.599-0.917-1.288-1.684-2.068-2.301-0.788-0.613-1.66-1.119-2.617-1.518-0.952-0.391-1.976-0.752-3.071-1.082v0l-22.518-6.787 1.077-3.573 21.362 6.439c1.427 0.43 2.767 0.938 4.022 1.524 1.259 0.595 2.393 1.339 3.401 2.234 1.015 0.896 1.876 1.983 2.582 3.259 0.713 1.278 1.228 2.819 1.545 4.624z" fill="#ffffff" data-fill-palette-color="primary"></path><path d="M44.555 75.351v0c0.053 0.412 0.121 0.913 0.203 1.501 0.088 0.592 0.129 1.222 0.123 1.888-0.001 0.67-0.073 1.353-0.218 2.05-0.148 0.702-0.422 1.368-0.822 1.997v0c-0.364 0.572-0.816 1.065-1.355 1.478-0.543 0.419-1.143 0.711-1.801 0.877-0.661 0.171-1.36 0.198-2.099 0.083-0.739-0.116-1.484-0.413-2.236-0.892v0c-0.46-0.293-0.89-0.646-1.289-1.058-0.405-0.416-0.738-0.896-0.999-1.441-0.261-0.544-0.444-1.154-0.551-1.829-0.103-0.681-0.094-1.432 0.028-2.254 0.123-0.813 0.38-1.706 0.771-2.678 0.391-0.973 0.946-2.024 1.664-3.152v0l0.922-1.448-1.481-0.943c-0.488-0.311-0.987-0.506-1.496-0.586-0.509-0.08-1.003-0.059-1.482 0.062-0.473 0.124-0.925 0.35-1.354 0.676-0.425 0.321-0.802 0.739-1.13 1.255v0c-0.247 0.387-0.463 0.825-0.648 1.315-0.195 0.491-0.348 1.005-0.461 1.54-0.122 0.538-0.201 1.071-0.237 1.599-0.035 0.538-0.02 1.04 0.045 1.508v0l-0.351 0.179-2.755-0.856c0.051-0.835 0.153-1.614 0.305-2.337 0.149-0.717 0.327-1.381 0.534-1.99 0.21-0.615 0.444-1.18 0.701-1.695 0.262-0.511 0.533-0.985 0.812-1.423v0c1.279-2.009 2.643-3.234 4.091-3.676 1.449-0.442 3.003-0.134 4.665 0.924v0l8.399 5.349c0.14 0.089 0.316 0.185 0.526 0.288 0.213 0.112 0.436 0.183 0.669 0.213 0.235 0.039 0.465 0.02 0.688-0.059 0.229-0.075 0.428-0.244 0.596-0.508v0c0.096-0.151 0.201-0.365 0.313-0.64 0.107-0.279 0.18-0.58 0.219-0.902v0l1.709 1.088c0.025 0.741-0.02 1.443-0.134 2.104-0.11 0.656-0.319 1.225-0.625 1.707v0c-0.282 0.443-0.6 0.75-0.953 0.92-0.362 0.172-0.742 0.261-1.14 0.267-0.396 0.016-0.797-0.03-1.201-0.138-0.41-0.111-0.798-0.232-1.165-0.363zM42.493 74.038l-3.728-2.375-0.783 1.229c-0.797 1.251-1.343 2.307-1.639 3.168-0.301 0.857-0.428 1.577-0.381 2.158 0.045 0.573 0.222 1.044 0.531 1.415 0.309 0.37 0.67 0.687 1.085 0.951v0c0.454 0.289 0.9 0.482 1.336 0.579 0.432 0.102 0.849 0.115 1.252 0.04 0.399-0.069 0.762-0.224 1.089-0.466 0.333-0.238 0.619-0.544 0.858-0.92v0c0.186-0.292 0.342-0.611 0.467-0.957 0.129-0.351 0.215-0.758 0.257-1.22 0.048-0.459 0.045-0.981-0.008-1.567-0.053-0.586-0.165-1.264-0.336-2.035z" fill="#ffffff" data-fill-palette-color="primary"></path><path d="M67.411 54.922l-18.729-10.721 3.139-2.608 12.408 7.891 2.762 2.012 0.291-0.242-1.503-3.058-5.455-13.669 2.878-2.391 7.08 20.401z" fill="#ffffff" data-fill-palette-color="primary"></path><path d="M101.652 31.667v0c-0.195 0.367-0.43 0.814-0.703 1.342-0.271 0.534-0.602 1.071-0.992 1.611-0.388 0.546-0.843 1.062-1.363 1.547-0.527 0.488-1.135 0.872-1.826 1.153v0c-0.628 0.256-1.282 0.397-1.961 0.422-0.685 0.028-1.344-0.081-1.975-0.327-0.638-0.243-1.224-0.625-1.76-1.147-0.536-0.522-0.972-1.195-1.308-2.02v0c-0.206-0.505-0.352-1.042-0.441-1.61-0.09-0.574-0.084-1.158 0.019-1.753 0.102-0.595 0.306-1.198 0.609-1.81 0.31-0.615 0.752-1.222 1.326-1.823 0.571-0.592 1.297-1.171 2.179-1.738 0.882-0.568 1.942-1.104 3.181-1.609v0l1.589-0.647-0.662-1.626c-0.218-0.536-0.512-0.984-0.882-1.344-0.369-0.36-0.784-0.629-1.244-0.807-0.458-0.172-0.956-0.25-1.495-0.231-0.532 0.016-1.082 0.139-1.649 0.369v0c-0.425 0.173-0.855 0.406-1.289 0.698-0.443 0.288-0.865 0.618-1.266 0.99-0.41 0.368-0.783 0.757-1.119 1.167-0.34 0.418-0.618 0.837-0.836 1.256v0l-0.389-0.057-1.753-2.292c0.525-0.652 1.058-1.228 1.601-1.729 0.537-0.499 1.066-0.937 1.587-1.315 0.528-0.38 1.045-0.706 1.553-0.977 0.51-0.265 1.005-0.496 1.485-0.691v0c2.205-0.898 4.027-1.109 5.464-0.632 1.437 0.478 2.527 1.628 3.27 3.452v0l3.757 9.222c0.063 0.154 0.15 0.334 0.263 0.539 0.109 0.214 0.25 0.401 0.422 0.561 0.169 0.168 0.367 0.285 0.595 0.35 0.23 0.071 0.49 0.048 0.78-0.07v0c0.166-0.068 0.375-0.181 0.626-0.341 0.248-0.166 0.482-0.369 0.7-0.608v0l0.764 1.875c-0.409 0.619-0.85 1.165-1.325 1.639-0.469 0.471-0.968 0.815-1.498 1.031v0c-0.487 0.198-0.923 0.265-1.309 0.199-0.394-0.069-0.756-0.216-1.085-0.442-0.332-0.217-0.632-0.486-0.9-0.807-0.27-0.328-0.517-0.651-0.74-0.97zM100.73 29.403l-1.668-4.094-1.349 0.55c-1.374 0.56-2.43 1.105-3.169 1.636-0.742 0.525-1.261 1.038-1.56 1.54-0.295 0.494-0.423 0.98-0.385 1.461 0.038 0.48 0.149 0.948 0.335 1.404v0c0.203 0.499 0.455 0.914 0.754 1.244 0.294 0.333 0.626 0.585 0.998 0.757 0.366 0.174 0.751 0.258 1.158 0.25 0.409-0.001 0.82-0.086 1.233-0.254v0c0.32-0.131 0.632-0.3 0.934-0.51 0.309-0.212 0.614-0.494 0.915-0.847 0.304-0.347 0.604-0.774 0.9-1.282 0.296-0.508 0.597-1.127 0.904-1.855z" fill="#ffffff" data-fill-palette-color="primary"></path><path d="M139.736 12.207v0c0.792 0.156 1.547 0.405 2.265 0.745 0.719 0.348 1.357 0.772 1.913 1.272 0.563 0.499 1.026 1.083 1.388 1.75 0.355 0.668 0.563 1.41 0.622 2.226v0c0.047 0.644-0.007 1.321-0.163 2.033-0.161 0.719-0.427 1.425-0.796 2.118-0.37 0.694-0.842 1.358-1.416 1.994-0.581 0.636-1.266 1.209-2.056 1.72-0.797 0.511-1.693 0.933-2.69 1.266-1.003 0.333-2.115 0.544-3.335 0.632v0l-7.146 0.518-2.022-27.865 7.832-0.568c1.533-0.111 2.882-0.029 4.049 0.246 1.167 0.269 2.152 0.661 2.957 1.176 0.804 0.515 1.422 1.121 1.853 1.817 0.431 0.696 0.673 1.418 0.727 2.168v0c0.046 0.63-0.035 1.263-0.242 1.898-0.207 0.635-0.497 1.243-0.868 1.824-0.371 0.581-0.808 1.129-1.311 1.646-0.497 0.51-1.017 0.971-1.561 1.383zM131.096 15.145l0.734 10.121 3.842-0.279c1.267-0.092 2.32-0.332 3.159-0.72 0.839-0.388 1.508-0.856 2.009-1.406 0.493-0.556 0.829-1.161 1.009-1.814 0.185-0.66 0.255-1.312 0.208-1.956v0c-0.059-0.809-0.272-1.498-0.64-2.064-0.368-0.567-0.864-1.021-1.49-1.363-0.619-0.349-1.356-0.585-2.212-0.71-0.85-0.132-1.786-0.161-2.808-0.086v0zM130.882 12.199l6.548-0.475c0.863-0.703 1.538-1.466 2.025-2.288 0.48-0.829 0.686-1.717 0.617-2.666v0c-0.093-1.28-0.687-2.258-1.783-2.932-1.096-0.674-2.626-0.94-4.59-0.797v0l-3.463 0.251z" fill="#ffffff" data-fill-palette-color="primary"></path><path d="M182.678 30.833l-0.535 1.985c-0.552 0.209-1.167 0.357-1.845 0.443-0.678 0.086-1.364 0.129-2.06 0.128-0.694-0.008-1.38-0.055-2.059-0.142-0.684-0.095-1.309-0.218-1.874-0.37v0c-1.252-0.337-2.385-0.866-3.397-1.587-1.018-0.722-1.842-1.602-2.471-2.639-0.63-1.038-1.034-2.221-1.214-3.551-0.184-1.338-0.067-2.784 0.352-4.338v0c0.434-1.612 1.094-3.002 1.98-4.169 0.894-1.171 1.912-2.099 3.055-2.783 1.148-0.683 2.375-1.12 3.681-1.313 1.31-0.184 2.608-0.104 3.892 0.242v0c1.047 0.282 1.973 0.718 2.779 1.307 0.811 0.597 1.455 1.336 1.935 2.215 0.479 0.88 0.768 1.895 0.865 3.044 0.103 1.151-0.033 2.426-0.411 3.827v0c-0.076 0.283-0.18 0.616-0.311 1.001-0.133 0.391-0.296 0.792-0.489 1.201v0l-13.324-3.589c-0.284 1.053-0.351 2.045-0.202 2.974 0.149 0.929 0.487 1.771 1.014 2.526 0.527 0.755 1.226 1.408 2.097 1.959 0.866 0.543 1.868 0.968 3.005 1.275v0c0.283 0.076 0.632 0.16 1.049 0.251 0.412 0.083 0.859 0.149 1.342 0.196 0.488 0.056 1.001 0.08 1.54 0.074 0.545-0.005 1.081-0.06 1.606-0.167zM171.813 19.568l10.203 2.748c0.247-0.918 0.335-1.766 0.262-2.544-0.067-0.776-0.257-1.464-0.57-2.065-0.309-0.593-0.723-1.09-1.242-1.492-0.517-0.408-1.106-0.701-1.768-0.879v0c-0.739-0.199-1.473-0.235-2.203-0.108-0.73 0.127-1.408 0.382-2.035 0.764-0.622 0.391-1.167 0.891-1.634 1.503-0.468 0.611-0.805 1.302-1.013 2.073z" fill="#ffffff" data-fill-palette-color="primary"></path><path d="M210.99 47.14v0c-0.413 0.046-0.915 0.106-1.504 0.179-0.594 0.078-1.224 0.109-1.89 0.092-0.67-0.012-1.352-0.095-2.046-0.251-0.7-0.159-1.361-0.444-1.983-0.855v0c-0.566-0.374-1.052-0.834-1.456-1.379-0.41-0.55-0.693-1.155-0.847-1.815-0.16-0.663-0.176-1.364-0.048-2.1 0.128-0.737 0.437-1.477 0.928-2.221v0c0.3-0.455 0.66-0.879 1.079-1.272 0.423-0.399 0.908-0.724 1.456-0.976 0.549-0.252 1.161-0.425 1.838-0.52 0.682-0.092 1.433-0.07 2.253 0.064 0.811 0.137 1.699 0.408 2.666 0.816 0.967 0.407 2.008 0.979 3.124 1.715v0l1.433 0.946 0.967-1.466c0.319-0.483 0.522-0.978 0.61-1.486 0.088-0.508 0.076-1.002-0.037-1.483-0.117-0.475-0.334-0.93-0.654-1.364-0.314-0.43-0.726-0.814-1.236-1.152v0c-0.383-0.253-0.818-0.476-1.304-0.669-0.488-0.203-0.999-0.364-1.533-0.485-0.536-0.13-1.067-0.218-1.595-0.264-0.537-0.044-1.04-0.037-1.508 0.02v0l-0.173-0.353 0.9-2.741c0.834 0.064 1.611 0.179 2.332 0.343 0.715 0.161 1.375 0.35 1.981 0.567 0.612 0.22 1.173 0.463 1.684 0.728 0.507 0.271 0.977 0.549 1.409 0.835v0c1.987 1.312 3.19 2.696 3.608 4.152 0.418 1.456 0.085 3.005-0.999 4.648v0l-5.486 8.311c-0.092 0.139-0.19 0.313-0.297 0.521-0.115 0.211-0.19 0.433-0.224 0.665-0.043 0.234-0.027 0.464 0.048 0.689 0.071 0.23 0.237 0.432 0.498 0.604v0c0.15 0.099 0.362 0.207 0.635 0.324 0.277 0.111 0.576 0.189 0.898 0.234v0l-1.116 1.69c-0.742 0.013-1.442-0.043-2.101-0.167-0.654-0.121-1.219-0.339-1.697-0.654v0c-0.439-0.289-0.74-0.612-0.904-0.967-0.166-0.365-0.249-0.746-0.249-1.145-0.009-0.397 0.043-0.796 0.158-1.199 0.118-0.408 0.245-0.794 0.382-1.159zM212.337 45.1l2.435-3.689-1.216-0.802c-1.238-0.817-2.285-1.381-3.14-1.691-0.852-0.315-1.569-0.454-2.152-0.416-0.574 0.036-1.048 0.205-1.423 0.507-0.375 0.302-0.698 0.659-0.969 1.07v0c-0.297 0.45-0.497 0.892-0.6 1.326-0.109 0.43-0.129 0.847-0.061 1.251 0.063 0.4 0.212 0.766 0.448 1.097 0.232 0.337 0.534 0.628 0.906 0.873v0c0.289 0.191 0.605 0.351 0.949 0.482 0.349 0.135 0.755 0.227 1.216 0.277 0.458 0.055 0.98 0.061 1.566 0.018 0.587-0.043 1.267-0.144 2.041-0.303z" fill="#ffffff" data-fill-palette-color="primary"></path><path d="M228.221 66.735l15.758-12.663 1.769 2.202-2.375 2.651c0.602 0.08 1.261 0.199 1.976 0.357 0.716 0.158 1.432 0.381 2.149 0.667 0.717 0.277 1.407 0.631 2.07 1.063 0.663 0.432 1.24 0.954 1.732 1.565v0c0.583 0.726 0.971 1.49 1.163 2.291 0.183 0.801 0.192 1.608 0.027 2.424-0.174 0.814-0.516 1.609-1.027 2.386-0.51 0.777-1.17 1.491-1.979 2.141v0l-10.437 8.388-2.269-2.824 10.165-8.169c0.576-0.463 1.017-0.954 1.325-1.474 0.312-0.515 0.498-1.036 0.561-1.564 0.061-0.519 0.007-1.038-0.164-1.558-0.171-0.511-0.445-0.999-0.82-1.466v0c-0.658-0.819-1.501-1.422-2.529-1.808-1.023-0.381-2.196-0.667-3.519-0.859v0l-11.301 9.081z" fill="#ffffff" data-fill-palette-color="primary"></path><path d="M248.87 97.699l3.129-0.344 0.324 0.242c-0.08 0.548-0.124 1.107-0.132 1.678-0.014 0.573 0.005 1.13 0.058 1.671 0.05 0.535 0.127 1.049 0.232 1.542 0.101 0.502 0.227 0.955 0.379 1.36v0c0.209 0.561 0.464 1.048 0.766 1.461 0.305 0.419 0.639 0.745 1.003 0.979 0.36 0.242 0.74 0.396 1.14 0.46 0.404 0.056 0.809 0.008 1.214-0.142v0c0.511-0.19 0.882-0.491 1.111-0.904 0.236-0.414 0.39-0.897 0.462-1.449 0.069-0.558 0.084-1.167 0.045-1.826-0.042-0.666-0.084-1.342-0.126-2.029-0.036-0.689-0.047-1.377-0.033-2.064 0.014-0.687 0.12-1.329 0.316-1.927 0.188-0.602 0.487-1.143 0.898-1.622 0.413-0.473 0.997-0.85 1.751-1.13v0c0.829-0.308 1.686-0.418 2.572-0.328 0.879 0.092 1.72 0.368 2.522 0.829 0.803 0.461 1.54 1.099 2.213 1.913 0.666 0.817 1.212 1.799 1.638 2.947v0c0.102 0.274 0.211 0.606 0.328 0.996 0.123 0.387 0.236 0.806 0.34 1.257 0.104 0.451 0.194 0.914 0.271 1.389 0.08 0.481 0.132 0.955 0.156 1.422v0l-3.064 0.32-0.403-0.34c0.052-0.395 0.069-0.817 0.052-1.265-0.017-0.448-0.062-0.892-0.135-1.334-0.078-0.439-0.168-0.864-0.27-1.272-0.102-0.409-0.209-0.763-0.321-1.063v0c-0.204-0.549-0.448-1.022-0.731-1.421-0.292-0.403-0.607-0.725-0.945-0.968-0.336-0.237-0.697-0.387-1.083-0.449-0.385-0.063-0.78-0.019-1.185 0.132v0c-0.524 0.195-0.904 0.499-1.14 0.913-0.243 0.417-0.396 0.91-0.461 1.481-0.067 0.564-0.08 1.179-0.038 1.845 0.05 0.67 0.096 1.355 0.137 2.057 0.049 0.706 0.064 1.403 0.043 2.092-0.012 0.693-0.114 1.345-0.306 1.955-0.189 0.617-0.497 1.164-0.922 1.642-0.423 0.484-1.018 0.868-1.785 1.153v0c-0.892 0.332-1.789 0.438-2.692 0.32-0.897-0.121-1.749-0.428-2.557-0.923-0.806-0.488-1.533-1.144-2.18-1.968-0.653-0.822-1.179-1.769-1.578-2.841v0c-0.343-0.923-0.602-1.944-0.777-3.064-0.169-1.122-0.248-2.25-0.236-3.383z" fill="#ffffff" data-fill-palette-color="primary"></path><path d="M5.251 143.879c0-5.894 4.778-10.672 10.673-10.672 5.894 0 10.672 4.778 10.672 10.672 0 5.894-4.778 10.672-10.672 10.672-5.894 0-10.672-4.778-10.673-10.672z" fill="#ffffff" data-fill-palette-color="primary"></path><path d="M256.701 143.879c0-5.894 4.778-10.672 10.672-10.672 5.894 0 10.672 4.778 10.673 10.672 0 5.894-4.778 10.672-10.673 10.672-5.894 0-10.672-4.778-10.672-10.672z" fill="#ffffff" data-fill-palette-color="primary"></path></g><g id="text-1"><path d="M1.954 182.062l1.506-1.746c1.086 0.93 2.136 1.611 3.148 2.042 1.006 0.433 2.004 0.692 2.995 0.775 0.995 0.075 2.002 0.015 3.02-0.18 1.01-0.2 2.062-0.465 3.158-0.796v0l22.517-6.786 1.077 3.573-21.361 6.438c-1.427 0.43-2.825 0.747-4.195 0.952-1.378 0.2-2.734 0.206-4.069 0.017-1.341-0.186-2.659-0.616-3.953-1.289-1.3-0.671-2.581-1.671-3.843-3z" fill="#ffffff" data-fill-palette-color="secondary"></path><path d="M32.588 220.029v0c-0.396-0.126-0.878-0.277-1.447-0.451-0.574-0.171-1.162-0.4-1.763-0.688-0.607-0.284-1.195-0.639-1.765-1.064-0.574-0.431-1.061-0.961-1.462-1.589v0c-0.364-0.572-0.62-1.19-0.767-1.854-0.15-0.669-0.161-1.337-0.032-2.002 0.125-0.671 0.396-1.317 0.812-1.937 0.417-0.621 1.002-1.17 1.754-1.649v0c0.46-0.293 0.962-0.533 1.504-0.721 0.548-0.192 1.124-0.29 1.728-0.296 0.604-0.006 1.234 0.086 1.89 0.275 0.66 0.195 1.337 0.521 2.031 0.978 0.684 0.455 1.385 1.066 2.101 1.832 0.717 0.766 1.434 1.713 2.152 2.841v0l0.922 1.447 1.482-0.943c0.488-0.311 0.876-0.68 1.163-1.108 0.288-0.428 0.478-0.884 0.571-1.369 0.088-0.482 0.074-0.986-0.04-1.512-0.111-0.521-0.331-1.039-0.659-1.556v0c-0.247-0.387-0.552-0.768-0.918-1.143-0.363-0.384-0.763-0.74-1.201-1.069-0.436-0.338-0.885-0.635-1.348-0.891-0.473-0.259-0.934-0.458-1.386-0.597v0l-0.014-0.393 1.941-2.135c0.735 0.399 1.398 0.821 1.989 1.265 0.587 0.439 1.113 0.88 1.578 1.326 0.469 0.451 0.882 0.901 1.239 1.351 0.352 0.454 0.668 0.9 0.946 1.338v0c1.279 2.009 1.813 3.763 1.601 5.262-0.212 1.5-1.149 2.778-2.81 3.836v0l-8.399 5.349c-0.14 0.089-0.301 0.208-0.484 0.355-0.191 0.145-0.35 0.317-0.476 0.516-0.135 0.196-0.214 0.413-0.237 0.648-0.029 0.239 0.04 0.491 0.208 0.755v0c0.096 0.151 0.246 0.336 0.448 0.554 0.208 0.215 0.449 0.408 0.724 0.58v0l-1.709 1.088c-0.682-0.291-1.299-0.628-1.85-1.01-0.548-0.377-0.975-0.807-1.282-1.289v0c-0.282-0.443-0.426-0.861-0.43-1.252-0.003-0.401 0.077-0.783 0.24-1.146 0.153-0.366 0.365-0.709 0.633-1.031 0.274-0.325 0.548-0.625 0.822-0.901zM34.65 218.715l3.728-2.374-0.783-1.229c-0.797-1.251-1.523-2.193-2.177-2.824-0.649-0.635-1.248-1.055-1.795-1.259-0.538-0.201-1.04-0.24-1.506-0.117-0.466 0.123-0.906 0.317-1.322 0.581v0c-0.454 0.289-0.817 0.611-1.088 0.966-0.275 0.349-0.464 0.721-0.566 1.117-0.106 0.391-0.119 0.785-0.039 1.184 0.075 0.402 0.232 0.791 0.471 1.167v0c0.186 0.292 0.409 0.568 0.669 0.828 0.264 0.266 0.596 0.515 0.998 0.749 0.395 0.237 0.87 0.456 1.423 0.655 0.553 0.2 1.215 0.385 1.987 0.556z" fill="#ffffff" data-fill-palette-color="secondary"></path><path d="M54.492 248.384l7.11-20.376 3.139 2.608-5.485 13.643-1.473 3.084 0.292 0.242 2.731-2.037 12.438-7.866 2.878 2.391-18.759 10.696z" fill="#ffffff" data-fill-palette-color="secondary"></path><path d="M96.299 269.231v0c-0.396 0.126-0.876 0.282-1.441 0.469-0.567 0.193-1.179 0.346-1.835 0.459-0.659 0.119-1.344 0.171-2.056 0.153-0.718-0.019-1.421-0.17-2.111-0.45v0c-0.628-0.256-1.194-0.612-1.698-1.069-0.51-0.459-0.905-0.997-1.185-1.614-0.286-0.619-0.439-1.303-0.458-2.051-0.019-0.747 0.14-1.534 0.477-2.359v0c0.206-0.505 0.476-0.991 0.809-1.459 0.337-0.473 0.749-0.887 1.239-1.241 0.489-0.354 1.056-0.644 1.701-0.869 0.651-0.223 1.392-0.349 2.222-0.377 0.822-0.024 1.746 0.069 2.774 0.279 1.028 0.21 2.161 0.568 3.398 1.072v0l1.59 0.648 0.662-1.627c0.218-0.536 0.321-1.062 0.309-1.576-0.013-0.515-0.122-0.998-0.327-1.448-0.207-0.444-0.51-0.847-0.907-1.21-0.392-0.361-0.871-0.657-1.438-0.887v0c-0.425-0.173-0.895-0.307-1.409-0.402-0.518-0.103-1.051-0.162-1.598-0.177-0.551-0.023-1.089-0.006-1.616 0.053-0.535 0.062-1.027 0.167-1.475 0.315v0l-0.239-0.313 0.348-2.864c0.831-0.1 1.615-0.139 2.354-0.119 0.732 0.018 1.417 0.074 2.054 0.169 0.643 0.097 1.241 0.225 1.793 0.386 0.55 0.167 1.065 0.348 1.545 0.543v0c2.205 0.898 3.655 2.021 4.35 3.367 0.694 1.346 0.67 2.931-0.073 4.754v0l-3.757 9.222c-0.063 0.154-0.126 0.344-0.189 0.569-0.072 0.229-0.102 0.461-0.09 0.696 0.003 0.238 0.064 0.461 0.181 0.667 0.115 0.212 0.317 0.377 0.607 0.495v0c0.166 0.068 0.395 0.132 0.686 0.193 0.294 0.055 0.602 0.073 0.926 0.054v0l-0.764 1.876c-0.725 0.157-1.423 0.239-2.094 0.246-0.665 0.009-1.262-0.094-1.791-0.31v0c-0.487-0.198-0.845-0.456-1.075-0.772-0.234-0.325-0.39-0.683-0.468-1.074-0.086-0.387-0.113-0.789-0.079-1.206 0.036-0.423 0.086-0.827 0.148-1.211zM97.221 266.967l1.668-4.094-1.349-0.549c-1.374-0.56-2.51-0.908-3.41-1.045-0.897-0.143-1.628-0.139-2.192 0.012-0.556 0.147-0.988 0.406-1.297 0.776-0.309 0.37-0.556 0.783-0.741 1.238v0c-0.203 0.499-0.313 0.971-0.33 1.417-0.023 0.443 0.039 0.856 0.185 1.239 0.14 0.38 0.357 0.709 0.653 0.988 0.293 0.285 0.646 0.511 1.06 0.68v0c0.32 0.131 0.662 0.227 1.024 0.288 0.369 0.064 0.785 0.075 1.247 0.034 0.46-0.035 0.973-0.132 1.54-0.289 0.567-0.157 1.214-0.389 1.942-0.695z" fill="#ffffff" data-fill-palette-color="secondary"></path><path d="M140.503 264.982v0c0.761 0.269 1.472 0.624 2.134 1.065 0.661 0.448 1.231 0.96 1.709 1.535 0.485 0.575 0.859 1.219 1.121 1.932 0.255 0.712 0.353 1.476 0.294 2.292v0c-0.047 0.644-0.198 1.306-0.455 1.988-0.263 0.688-0.628 1.348-1.094 1.982-0.466 0.633-1.029 1.223-1.689 1.768-0.667 0.545-1.427 1.014-2.283 1.405-0.862 0.391-1.81 0.679-2.844 0.864-1.04 0.185-2.171 0.233-3.392 0.144v0l-7.145-0.519 2.022-27.865 7.832 0.569c1.533 0.111 2.856 0.387 3.972 0.828 1.116 0.434 2.034 0.965 2.756 1.591 0.722 0.626 1.245 1.314 1.571 2.065 0.326 0.751 0.461 1.501 0.407 2.25v0c-0.046 0.63-0.217 1.245-0.514 1.844-0.297 0.599-0.671 1.158-1.123 1.679-0.451 0.521-0.963 1.001-1.535 1.439-0.565 0.433-1.146 0.814-1.744 1.144zM131.529 266.642l-0.734 10.121 3.841 0.279c1.267 0.092 2.344 0.007 3.23-0.256 0.886-0.262 1.616-0.63 2.191-1.102 0.568-0.479 0.988-1.029 1.26-1.649 0.279-0.627 0.442-1.262 0.488-1.905v0c0.059-0.809-0.053-1.521-0.335-2.136-0.282-0.614-0.708-1.135-1.277-1.563-0.562-0.434-1.258-0.775-2.087-1.022-0.822-0.253-1.744-0.417-2.765-0.491v0zM131.743 263.696l6.548 0.475c0.955-0.571 1.733-1.228 2.334-1.971 0.595-0.75 0.926-1.6 0.996-2.549v0c0.093-1.28-0.354-2.333-1.342-3.159-0.987-0.825-2.463-1.309-4.426-1.451v0l-3.463-0.252z" fill="#ffffff" data-fill-palette-color="secondary"></path><path d="M185.973 269.16l0.535 1.985c-0.373 0.459-0.83 0.895-1.373 1.31-0.543 0.415-1.115 0.796-1.717 1.145-0.604 0.342-1.221 0.646-1.852 0.912-0.639 0.262-1.241 0.469-1.807 0.621v0c-1.252 0.337-2.497 0.449-3.733 0.333-1.243-0.113-2.397-0.46-3.464-1.04-1.066-0.581-2.01-1.401-2.832-2.462-0.831-1.064-1.456-2.374-1.875-3.928v0c-0.434-1.612-0.561-3.145-0.381-4.599 0.185-1.462 0.599-2.776 1.243-3.941 0.65-1.167 1.491-2.162 2.524-2.984 1.04-0.818 2.203-1.399 3.487-1.746v0c1.047-0.282 2.067-0.371 3.06-0.266 1.001 0.109 1.929 0.424 2.786 0.945 0.857 0.52 1.615 1.253 2.276 2.197 0.667 0.943 1.19 2.115 1.567 3.515v0c0.076 0.283 0.154 0.623 0.234 1.022 0.082 0.405 0.142 0.833 0.18 1.285v0l-13.324 3.589c0.284 1.053 0.723 1.944 1.319 2.672 0.596 0.728 1.311 1.286 2.146 1.675 0.835 0.388 1.767 0.602 2.797 0.641 1.022 0.035 2.102-0.101 3.238-0.407v0c0.283-0.076 0.627-0.179 1.033-0.309 0.398-0.135 0.817-0.303 1.259-0.504 0.45-0.197 0.906-0.434 1.37-0.71 0.469-0.278 0.904-0.595 1.304-0.951zM170.92 264.875l10.203-2.748c-0.247-0.918-0.598-1.696-1.051-2.331-0.447-0.637-0.957-1.137-1.53-1.499-0.565-0.358-1.172-0.58-1.823-0.667-0.652-0.093-1.309-0.051-1.97 0.128v0c-0.739 0.199-1.392 0.537-1.959 1.013-0.567 0.477-1.026 1.038-1.376 1.683-0.342 0.65-0.561 1.357-0.659 2.12-0.098 0.763-0.042 1.53 0.165 2.301z" fill="#ffffff" data-fill-palette-color="secondary"></path><path d="M218.807 252.459v0c-0.12 0.398-0.262 0.883-0.428 1.453-0.161 0.577-0.381 1.168-0.658 1.774-0.274 0.611-0.619 1.206-1.035 1.783-0.421 0.581-0.943 1.077-1.565 1.487v0c-0.566 0.374-1.18 0.639-1.841 0.797-0.667 0.161-1.334 0.183-2.001 0.066-0.673-0.114-1.323-0.374-1.95-0.781-0.627-0.407-1.186-0.982-1.678-1.726v0c-0.3-0.455-0.549-0.953-0.746-1.493-0.2-0.545-0.309-1.119-0.324-1.723-0.016-0.603 0.066-1.235 0.244-1.894 0.184-0.663 0.499-1.345 0.945-2.047 0.444-0.692 1.043-1.402 1.797-2.131 0.754-0.729 1.689-1.462 2.805-2.198v0l1.432-0.945-0.967-1.466c-0.319-0.483-0.694-0.865-1.127-1.145-0.432-0.281-0.892-0.463-1.378-0.549-0.483-0.08-0.987-0.058-1.511 0.065-0.519 0.119-1.034 0.348-1.545 0.685v0c-0.383 0.253-0.759 0.565-1.128 0.936-0.378 0.369-0.728 0.775-1.049 1.218-0.33 0.441-0.62 0.896-0.869 1.363-0.251 0.477-0.442 0.942-0.574 1.395v0l-0.393 0.02-2.167-1.905c0.387-0.742 0.798-1.411 1.233-2.009 0.429-0.594 0.862-1.127 1.299-1.599 0.443-0.476 0.887-0.896 1.332-1.262 0.448-0.36 0.889-0.682 1.322-0.968v0c1.987-1.312 3.733-1.874 5.235-1.686 1.503 0.188 2.797 1.103 3.881 2.746v0l5.486 8.311c0.092 0.139 0.213 0.298 0.363 0.477 0.149 0.189 0.323 0.345 0.524 0.468 0.199 0.132 0.416 0.208 0.652 0.227 0.24 0.025 0.49-0.049 0.751-0.221v0c0.15-0.099 0.332-0.251 0.547-0.457 0.211-0.211 0.401-0.456 0.568-0.733v0l1.116 1.69c-0.28 0.687-0.607 1.309-0.98 1.867-0.368 0.554-0.79 0.988-1.268 1.303v0c-0.439 0.289-0.853 0.44-1.245 0.451-0.4 0.009-0.784-0.064-1.15-0.221-0.368-0.147-0.715-0.353-1.04-0.617-0.329-0.269-0.634-0.538-0.915-0.806zM217.46 250.418l-2.435-3.689-1.216 0.803c-1.238 0.817-2.168 1.558-2.789 2.223-0.625 0.659-1.034 1.265-1.228 1.816-0.193 0.542-0.223 1.044-0.093 1.507 0.131 0.464 0.332 0.901 0.603 1.312v0c0.297 0.45 0.625 0.807 0.983 1.073 0.353 0.269 0.729 0.452 1.126 0.547 0.393 0.1 0.787 0.106 1.185 0.02 0.401-0.081 0.787-0.245 1.159-0.49v0c0.289-0.191 0.561-0.418 0.817-0.683 0.261-0.268 0.505-0.605 0.732-1.01 0.231-0.399 0.441-0.877 0.632-1.433 0.191-0.556 0.365-1.222 0.524-1.996z" fill="#ffffff" data-fill-palette-color="secondary"></path><path d="M243.979 233.685l-15.758-12.663 1.769-2.201 3.1 1.749c-0.052-0.605-0.077-1.274-0.077-2.007 0.001-0.733 0.064-1.481 0.189-2.242 0.116-0.76 0.313-1.51 0.592-2.251 0.279-0.74 0.664-1.416 1.156-2.028v0c0.583-0.726 1.246-1.269 1.988-1.628 0.743-0.351 1.529-0.533 2.36-0.548 0.832-0.005 1.683 0.157 2.552 0.488 0.869 0.331 1.708 0.822 2.516 1.472v0l10.438 8.388-2.269 2.823-10.165-8.169c-0.576-0.463-1.15-0.788-1.725-0.976-0.57-0.193-1.119-0.264-1.648-0.211-0.52 0.052-1.015 0.217-1.486 0.496-0.462 0.277-0.88 0.649-1.256 1.116v0c-0.658 0.819-1.066 1.772-1.221 2.858-0.152 1.081-0.179 2.288-0.081 3.622v0l11.301 9.081z" fill="#ffffff" data-fill-palette-color="secondary"></path><path d="M266.096 196.464l-2.594-1.784-0.087-0.395c0.419-0.362 0.817-0.757 1.196-1.184 0.385-0.425 0.735-0.859 1.048-1.302 0.312-0.438 0.589-0.878 0.832-1.32 0.251-0.446 0.452-0.872 0.602-1.277v0c0.209-0.561 0.333-1.097 0.374-1.607 0.043-0.516 0.003-0.982-0.119-1.396-0.114-0.419-0.302-0.783-0.563-1.093-0.269-0.306-0.607-0.534-1.012-0.685v0c-0.511-0.19-0.989-0.204-1.432-0.043-0.45 0.159-0.882 0.424-1.296 0.796-0.417 0.377-0.826 0.828-1.227 1.353-0.403 0.531-0.813 1.071-1.23 1.619-0.423 0.545-0.864 1.073-1.324 1.583-0.459 0.51-0.959 0.928-1.498 1.253-0.535 0.333-1.115 0.547-1.739 0.641-0.622 0.088-1.31-0.008-2.065-0.288v0c-0.829-0.308-1.55-0.786-2.161-1.432-0.605-0.644-1.061-1.402-1.368-2.276-0.307-0.873-0.449-1.838-0.425-2.893 0.03-1.053 0.258-2.154 0.685-3.301v0c0.102-0.274 0.236-0.597 0.402-0.969 0.16-0.373 0.348-0.765 0.565-1.174 0.216-0.409 0.45-0.819 0.702-1.229 0.254-0.416 0.524-0.809 0.81-1.178v0l2.529 1.76 0.083 0.52c-0.297 0.266-0.586 0.573-0.865 0.924-0.279 0.35-0.536 0.716-0.77 1.098-0.228 0.384-0.437 0.764-0.626 1.14-0.19 0.377-0.34 0.715-0.452 1.014v0c-0.204 0.549-0.329 1.066-0.375 1.553-0.042 0.495-0.014 0.946 0.083 1.351 0.1 0.399 0.275 0.748 0.526 1.047 0.251 0.299 0.579 0.524 0.984 0.675v0c0.524 0.195 1.01 0.212 1.46 0.053 0.456-0.157 0.895-0.43 1.316-0.82 0.419-0.383 0.831-0.841 1.234-1.372 0.399-0.54 0.813-1.089 1.241-1.647 0.424-0.566 0.868-1.104 1.334-1.612 0.462-0.517 0.965-0.944 1.508-1.28 0.546-0.343 1.137-0.557 1.771-0.641 0.637-0.09 1.338 0.008 2.106 0.294v0c0.892 0.332 1.64 0.837 2.246 1.516 0.6 0.677 1.044 1.467 1.333 2.369 0.291 0.896 0.413 1.867 0.365 2.914-0.042 1.049-0.263 2.109-0.662 3.182v0c-0.343 0.923-0.814 1.865-1.413 2.828-0.605 0.96-1.283 1.865-2.032 2.715z" fill="#ffffff" data-fill-palette-color="secondary"></path></g></svg></g></svg></g></svg></g></svg></g><defs></defs></svg><rect width="280" height="280" fill="none" stroke="none" visibility="hidden"></rect></g></svg></g></svg>